<svg xmlns="http://www.w3.org/2000/svg" id="thank-you-icon" viewBox="0 0 128 128">
    <title>Thank You</title>
    <defs>
        <linearGradient id="thank-you-fill" x1="50%" x2="50%" y1="100%" y2="0%">
            <stop offset="0%" stop-color="#FE5196"/>
            <stop offset="100%" stop-color="#F77062"/>
        </linearGradient>
    </defs>
    <g fill="none" fill-rule="evenodd" class="thank-you">
        <g style="fill: var(--theme-app-color, url(#thank-you-fill))" class="bottom-layer--style" opacity=".5" transform="translate(2 67)">
            <path d="M9.09 24.161a3.964 3.964 0 0 1 5.462-.136l.144.136 22.143 22.143a3.964 3.964 0 0 1 .136 5.463l-.136.143-9.09 9.09L0 33.25l9.09-9.089zM41.292.979a9.482 9.482 0 0 1 5.68-.862l.362.064 3.367.866A100 100 0 0 0 75.612 4.2h3.78c2.794-.01 5.328 1.621 6.452 4.152a6.884 6.884 0 0 1-1.092 7.302c-1.164 1.346-3.102 2.172-5.814 2.48H58.26c-2.593 0-4.695 2.078-4.695 4.644 0 2.493 1.987 4.528 4.48 4.64l21.814.004a4.73 4.73 0 0 0 1.53-.254l32.954-13.18a7.109 7.109 0 0 1 5.39.064 6.997 6.997 0 0 1 3.763 3.818 6.894 6.894 0 0 1-.067 5.33 7.001 7.001 0 0 1-3.588 3.61L72.614 45.5a7.07 7.07 0 0 1-2.278.491L48.696 46a11 11 0 0 1-7.736-3.18L18.875 20.978a4 4 0 0 1-.18-5.497l5.619-5.57a9.374 9.374 0 0 1 2.103-1.564L41.292.98z" class="bottom-layer"/>
        </g>
        <path style="fill: var(--theme-app-color, url(#thank-you-fill))" d="M79.503 49a4.073 4.073 0 0 1-2.294-.71c-10.014-6.808-14.351-11.483-16.741-14.394-5.097-6.219-7.538-12.606-7.466-19.522C53.08 6.448 59.428 0 67.152 0c5.198 0 8.918 2.713 11.237 5.208a1.528 1.528 0 0 0 2.222 0C82.932 2.713 86.651 0 91.848 0c7.724 0 14.071 6.448 14.15 14.374.072 6.916-2.372 13.303-7.466 19.522-2.39 2.92-6.727 7.586-16.741 14.395a4.073 4.073 0 0 1-2.288.709z" class="top-layer"/>
    </g>
</svg>